<svg id="visual" viewBox="0 0 900 600" width="900" height="600" xmlns="http://www.w3.org/2000/svg" xmlns:xlink="http://www.w3.org/1999/xlink" version="1.1"><path d="M623 600L645 585.7C667 571.3 711 542.7 720 514.2C729 485.7 703 457.3 685.5 428.8C668 400.3 659 371.7 674.2 343C689.3 314.3 728.7 285.7 736.8 257C745 228.3 722 199.7 689.3 171.2C656.7 142.7 614.3 114.3 597.2 85.8C580 57.3 588 28.7 592 14.3L596 0L900 0L900 14.3C900 28.7 900 57.3 900 85.8C900 114.3 900 142.7 900 171.2C900 199.7 900 228.3 900 257C900 285.7 900 314.3 900 343C900 371.7 900 400.3 900 428.8C900 457.3 900 485.7 900 514.2C900 542.7 900 571.3 900 585.7L900 600Z" fill="#e2d7c8" stroke-linecap="round" stroke-linejoin="miter"></path></svg>