<svg id="visual" viewBox="0 0 900 600" width="900" height="600" xmlns="http://www.w3.org/2000/svg" xmlns:xlink="http://www.w3.org/1999/xlink" version="1.1"><path d="M0 506L21.5 487.7C43 469.3 86 432.7 128.8 424C171.7 415.3 214.3 434.7 257.2 448.3C300 462 343 470 385.8 460.5C428.7 451 471.3 424 514.2 426.2C557 428.3 600 459.7 642.8 471.8C685.7 484 728.3 477 771.2 461.8C814 446.7 857 423.3 878.5 411.7L900 400L900 601L878.5 601C857 601 814 601 771.2 601C728.3 601 685.7 601 642.8 601C600 601 557 601 514.2 601C471.3 601 428.7 601 385.8 601C343 601 300 601 257.2 601C214.3 601 171.7 601 128.8 601C86 601 43 601 21.5 601L0 601Z" fill="#E2D7C8" stroke-linecap="round" stroke-linejoin="miter"></path></svg>